<svg width="38" height="26" viewBox="0 0 38 26" fill="none" xmlns="http://www.w3.org/2000/svg">
<path d="M36.2226 3.80633H1.77742C0.796774 3.80633 0 2.94826 0 1.96762C0 0.986971 0.796774 0.128906 1.77742 0.128906H36.2226C37.2032 0.128906 38 0.986971 38 1.96762C38 2.94826 37.2032 3.80633 36.2226 3.80633Z" fill="black"/>
<path d="M36.2226 14.8395H1.77742C0.796774 14.8395 0 13.9815 0 13.0008C0 12.0202 0.796774 11.1621 1.77742 11.1621H36.2226C37.2032 11.1621 38 12.0202 38 13.0008C38 13.9815 37.2032 14.8395 36.2226 14.8395Z" fill="black"/>
<path d="M36.2226 25.8708H1.77742C0.796774 25.8708 0 25.0127 0 24.0321C0 23.0514 0.796774 22.1934 1.77742 22.1934H36.2226C37.2032 22.1934 38 23.0514 38 24.0321C38 25.0127 37.2032 25.8708 36.2226 25.8708Z" fill="black"/>
</svg>
