<svg width="16" height="16" viewBox="0 0 16 16" fill="none" xmlns="http://www.w3.org/2000/svg">
<path fill-rule="evenodd" clip-rule="evenodd" d="M7.7335 11.266C7.66683 11.266 7.60016 11.1993 7.5335 11.1327L4.86683 8.46601C4.60016 8.19935 4.60016 7.79935 4.86683 7.53268C5.1335 7.26602 5.5335 7.26602 5.80016 7.53268L7.3335 9.06602V1.33268C7.3335 0.932682 7.60016 0.666016 8.00016 0.666016C8.40016 0.666016 8.66683 0.932682 8.66683 1.33268V9.06602L10.2002 7.53268C10.4668 7.26602 10.8668 7.26602 11.1335 7.53268C11.4002 7.79935 11.4002 8.19935 11.1335 8.46601L8.46683 11.1327C8.4335 11.166 8.40016 11.1827 8.36683 11.1993C8.3335 11.216 8.30016 11.2327 8.26683 11.266C8.20016 11.3327 8.06683 11.3327 8.00016 11.3327C7.9335 11.3327 7.80016 11.3327 7.7335 11.266ZM14.6668 13.3327V11.3327C14.6668 10.9327 14.4002 10.666 14.0002 10.666C13.6002 10.666 13.3335 10.9327 13.3335 11.3327V13.3327C13.3335 13.7327 13.0668 13.9993 12.6668 13.9993H3.3335C2.9335 13.9993 2.66683 13.7327 2.66683 13.3327V11.3327C2.66683 10.9327 2.40016 10.666 2.00016 10.666C1.60016 10.666 1.3335 10.9327 1.3335 11.3327V13.3327C1.3335 14.466 2.20016 15.3327 3.3335 15.3327H12.6668C13.8002 15.3327 14.6668 14.466 14.6668 13.3327Z" fill="#325ECD"/>
<mask id="mask0_44_3221" style="mask-type:alpha" maskUnits="userSpaceOnUse" x="1" y="0" width="14" height="16">
<path fill-rule="evenodd" clip-rule="evenodd" d="M7.7335 11.266C7.66683 11.266 7.60016 11.1993 7.5335 11.1327L4.86683 8.46601C4.60016 8.19935 4.60016 7.79935 4.86683 7.53268C5.1335 7.26602 5.5335 7.26602 5.80016 7.53268L7.3335 9.06602V1.33268C7.3335 0.932682 7.60016 0.666016 8.00016 0.666016C8.40016 0.666016 8.66683 0.932682 8.66683 1.33268V9.06602L10.2002 7.53268C10.4668 7.26602 10.8668 7.26602 11.1335 7.53268C11.4002 7.79935 11.4002 8.19935 11.1335 8.46601L8.46683 11.1327C8.4335 11.166 8.40016 11.1827 8.36683 11.1993C8.3335 11.216 8.30016 11.2327 8.26683 11.266C8.20016 11.3327 8.06683 11.3327 8.00016 11.3327C7.9335 11.3327 7.80016 11.3327 7.7335 11.266ZM14.6668 13.3327V11.3327C14.6668 10.9327 14.4002 10.666 14.0002 10.666C13.6002 10.666 13.3335 10.9327 13.3335 11.3327V13.3327C13.3335 13.7327 13.0668 13.9993 12.6668 13.9993H3.3335C2.9335 13.9993 2.66683 13.7327 2.66683 13.3327V11.3327C2.66683 10.9327 2.40016 10.666 2.00016 10.666C1.60016 10.666 1.3335 10.9327 1.3335 11.3327V13.3327C1.3335 14.466 2.20016 15.3327 3.3335 15.3327H12.6668C13.8002 15.3327 14.6668 14.466 14.6668 13.3327Z" fill="white"/>
</mask>
<g mask="url(#mask0_44_3221)">
<rect width="16" height="16" fill="#325ECD"/>
</g>
</svg>
