<svg width="276" height="77" viewBox="0 0 276 77" fill="none" xmlns="http://www.w3.org/2000/svg">
<rect width="276" height="77" rx="26" fill="#233259"/>
<path d="M92.2722 51.315C91.1989 51.315 90.1489 51.2333 89.1222 51.07C88.0956 50.9067 87.1272 50.6617 86.2172 50.335C85.3072 49.985 84.4906 49.565 83.7672 49.075C83.4172 48.8183 83.1722 48.5267 83.0322 48.2C82.9156 47.8733 82.8806 47.5583 82.9272 47.255C82.9972 46.9283 83.1372 46.6483 83.3472 46.415C83.5572 46.1817 83.8139 46.0417 84.1172 45.995C84.4206 45.925 84.7589 46.0183 85.1322 46.275C86.1822 46.9517 87.2906 47.4533 88.4572 47.78C89.6239 48.0833 90.8956 48.235 92.2722 48.235C94.2556 48.235 95.7139 47.885 96.6472 47.185C97.6039 46.4617 98.0822 45.5283 98.0822 44.385C98.0822 43.4517 97.7439 42.7167 97.0672 42.18C96.3906 41.62 95.2589 41.1767 93.6722 40.85L89.9272 40.08C87.7106 39.6133 86.0539 38.8433 84.9572 37.77C83.8839 36.6967 83.3472 35.25 83.3472 33.43C83.3472 32.3333 83.5689 31.33 84.0122 30.42C84.4789 29.51 85.1206 28.7283 85.9372 28.075C86.7539 27.3983 87.7339 26.885 88.8772 26.535C90.0206 26.185 91.2689 26.01 92.6222 26.01C94.0689 26.01 95.4222 26.1967 96.6822 26.57C97.9656 26.9433 99.1089 27.515 100.112 28.285C100.416 28.495 100.614 28.7633 100.707 29.09C100.824 29.3933 100.847 29.6967 100.777 30C100.731 30.3033 100.602 30.56 100.392 30.77C100.182 30.98 99.9139 31.1083 99.5872 31.155C99.2606 31.1783 98.8989 31.0617 98.5022 30.805C97.5922 30.1983 96.6589 29.7667 95.7022 29.51C94.7689 29.23 93.7306 29.09 92.5872 29.09C91.4439 29.09 90.4406 29.265 89.5772 29.615C88.7372 29.965 88.0839 30.455 87.6172 31.085C87.1739 31.715 86.9522 32.4617 86.9522 33.325C86.9522 34.305 87.2672 35.0867 87.8972 35.67C88.5272 36.2533 89.5772 36.6967 91.0472 37L94.7572 37.77C97.0906 38.26 98.8289 39.0183 99.9722 40.045C101.116 41.0717 101.687 42.4367 101.687 44.14C101.687 45.2367 101.466 46.2283 101.022 47.115C100.579 47.9783 99.9489 48.725 99.1322 49.355C98.3156 49.985 97.3239 50.475 96.1572 50.825C95.0139 51.1517 93.7189 51.315 92.2722 51.315ZM116.88 51.315C114.383 51.315 112.248 50.8017 110.475 49.775C108.701 48.7483 107.336 47.29 106.38 45.4C105.446 43.4867 104.98 41.235 104.98 38.645C104.98 36.7083 105.248 34.97 105.785 33.43C106.321 31.8667 107.091 30.5367 108.095 29.44C109.121 28.32 110.37 27.4683 111.84 26.885C113.333 26.3017 115.013 26.01 116.88 26.01C118.256 26.01 119.575 26.1967 120.835 26.57C122.118 26.9433 123.226 27.48 124.16 28.18C124.556 28.4367 124.813 28.7517 124.93 29.125C125.07 29.475 125.093 29.8133 125 30.14C124.93 30.4667 124.778 30.7467 124.545 30.98C124.311 31.19 124.008 31.3067 123.635 31.33C123.285 31.3533 122.9 31.225 122.48 30.945C121.71 30.3617 120.858 29.93 119.925 29.65C118.991 29.37 118.011 29.23 116.985 29.23C115.211 29.23 113.718 29.6033 112.505 30.35C111.291 31.0733 110.37 32.135 109.74 33.535C109.11 34.935 108.795 36.6383 108.795 38.645C108.795 40.6517 109.11 42.3667 109.74 43.79C110.37 45.19 111.291 46.2633 112.505 47.01C113.718 47.7333 115.211 48.095 116.985 48.095C118.011 48.095 118.991 47.955 119.925 47.675C120.881 47.3717 121.78 46.9283 122.62 46.345C123.04 46.0883 123.413 45.9717 123.74 45.995C124.09 46.0183 124.381 46.135 124.615 46.345C124.848 46.555 125 46.8233 125.07 47.15C125.163 47.4533 125.151 47.78 125.035 48.13C124.941 48.4567 124.72 48.7367 124.37 48.97C123.413 49.74 122.281 50.3233 120.975 50.72C119.668 51.1167 118.303 51.315 116.88 51.315ZM128.785 51.245C128.319 51.245 127.945 51.14 127.665 50.93C127.385 50.72 127.222 50.44 127.175 50.09C127.129 49.74 127.199 49.3433 127.385 48.9L136.87 27.62C137.104 27.06 137.395 26.6633 137.745 26.43C138.119 26.1967 138.527 26.08 138.97 26.08C139.39 26.08 139.775 26.1967 140.125 26.43C140.499 26.6633 140.802 27.06 141.035 27.62L150.52 48.9C150.73 49.3433 150.812 49.7517 150.765 50.125C150.719 50.475 150.567 50.755 150.31 50.965C150.054 51.1517 149.692 51.245 149.225 51.245C148.712 51.245 148.304 51.1167 148 50.86C147.697 50.6033 147.429 50.2067 147.195 49.67L144.745 44L146.39 44.98H131.48L133.09 44L130.675 49.67C130.442 50.23 130.185 50.6383 129.905 50.895C129.625 51.1283 129.252 51.245 128.785 51.245ZM138.9 30.35L133.615 42.88L132.74 42.04H145.095L144.29 42.88L138.97 30.35H138.9ZM156.412 51.245C155.875 51.245 155.455 51.0933 155.152 50.79C154.848 50.4867 154.697 50.055 154.697 49.495V27.9C154.697 27.3167 154.837 26.8733 155.117 26.57C155.42 26.2433 155.817 26.08 156.307 26.08C156.727 26.08 157.042 26.1617 157.252 26.325C157.485 26.465 157.753 26.7333 158.057 27.13L172.477 46.135H171.602V27.795C171.602 27.2583 171.742 26.8383 172.022 26.535C172.325 26.2317 172.745 26.08 173.282 26.08C173.842 26.08 174.262 26.2317 174.542 26.535C174.822 26.8383 174.962 27.2583 174.962 27.795V49.53C174.962 50.0667 174.822 50.4867 174.542 50.79C174.285 51.0933 173.935 51.245 173.492 51.245C173.072 51.245 172.722 51.1633 172.442 51C172.185 50.8367 171.905 50.5567 171.602 50.16L157.252 31.19H158.057V49.495C158.057 50.055 157.917 50.4867 157.637 50.79C157.357 51.0933 156.948 51.245 156.412 51.245ZM191.686 51.245C191.149 51.245 190.729 51.0933 190.426 50.79C190.146 50.4867 190.006 50.0667 190.006 49.53V27.795C190.006 27.235 190.158 26.815 190.461 26.535C190.764 26.2317 191.173 26.08 191.686 26.08C192.176 26.08 192.549 26.1733 192.806 26.36C193.086 26.5233 193.343 26.8267 193.576 27.27L202.746 44.385H201.661L210.796 27.27C211.029 26.8267 211.274 26.5233 211.531 26.36C211.788 26.1733 212.161 26.08 212.651 26.08C213.164 26.08 213.561 26.2317 213.841 26.535C214.121 26.815 214.261 27.235 214.261 27.795V49.53C214.261 50.0667 214.121 50.4867 213.841 50.79C213.584 51.0933 213.188 51.245 212.651 51.245C212.114 51.245 211.706 51.0933 211.426 50.79C211.146 50.4867 211.006 50.0667 211.006 49.53V31.47H211.776L203.656 46.485C203.469 46.835 203.271 47.0917 203.061 47.255C202.851 47.4183 202.559 47.5 202.186 47.5C201.813 47.5 201.509 47.4183 201.276 47.255C201.043 47.0683 200.833 46.8117 200.646 46.485L192.456 31.435H193.296V49.53C193.296 50.0667 193.156 50.4867 192.876 50.79C192.619 51.0933 192.223 51.245 191.686 51.245ZM222.042 51C221.412 51 220.922 50.8367 220.572 50.51C220.246 50.16 220.082 49.67 220.082 49.04V28.285C220.082 27.655 220.246 27.1767 220.572 26.85C220.922 26.5 221.412 26.325 222.042 26.325H234.817C235.307 26.325 235.681 26.4533 235.937 26.71C236.194 26.9433 236.322 27.2933 236.322 27.76C236.322 28.25 236.194 28.6233 235.937 28.88C235.681 29.1367 235.307 29.265 234.817 29.265H223.582V37H234.047C234.561 37 234.934 37.1283 235.167 37.385C235.424 37.6417 235.552 38.0033 235.552 38.47C235.552 38.96 235.424 39.3333 235.167 39.59C234.934 39.8233 234.561 39.94 234.047 39.94H223.582V48.06H234.817C235.307 48.06 235.681 48.1883 235.937 48.445C236.194 48.7017 236.322 49.0633 236.322 49.53C236.322 50.02 236.194 50.3933 235.937 50.65C235.681 50.8833 235.307 51 234.817 51H222.042Z" fill="white"/>
<path d="M53.875 21H38.125C36.2605 21 34.75 22.512 34.75 24.375V53.625C34.75 55.4895 36.262 57 38.125 57H53.875C55.7395 57 57.25 55.4895 57.25 53.625V24.375C57.25 22.5105 55.738 21 53.875 21ZM46 54.75C44.7595 54.7485 43.7545 53.7435 43.7545 52.503C43.7545 51.2625 44.761 50.256 46.0015 50.256C47.242 50.256 48.2485 51.2625 48.2485 52.503C48.2485 53.124 47.9965 53.685 47.59 54.0915C47.1835 54.498 46.621 54.75 46 54.75H45.9985H46ZM53.875 47.16C53.872 47.622 53.497 47.997 53.035 48H38.968C38.5045 48 38.128 47.6235 38.128 47.16V25.2195C38.128 24.756 38.5045 24.3795 38.968 24.3795H53.029C53.491 24.3825 53.866 24.7575 53.869 25.2195L53.875 47.16Z" fill="white"/>
</svg>
