<svg width="265" height="96" viewBox="0 0 265 96" fill="none" xmlns="http://www.w3.org/2000/svg">
<path fill-rule="evenodd" clip-rule="evenodd" d="M46.7231 46.6588C50.2656 51.1351 49.8502 58.4501 45.4475 62.2569C44.9993 62.6463 42.9437 64.2876 42.1091 64.1893C39.9078 63.9382 37.63 60.1242 39.7475 57.2528C40.7497 55.8953 42.2513 55.9718 44.1027 56.0809C43.7638 54.1412 41.3547 52.2997 39.9406 51.328C38.9493 50.6474 38.1183 50.2653 37.2072 49.5629C34.984 47.8379 35.9899 48.4639 34.7945 47.3175C34.0036 48.0927 33.6355 49.6466 34.1786 51.0296C34.8164 52.6564 35.7348 52.2014 37.0177 52.9766C33.446 54.5706 30.7636 59.3199 31.8169 63.6944C29.4334 62.9447 26.9405 59.1271 26.2808 56.3393C25.038 51.0987 27.52 48.5294 28.555 46.3349C27.6111 45.9636 25.8398 44.7445 24.987 44.1549C18.2592 39.5111 12.5336 34.4525 8.18563 27.4141C7.78473 26.7699 7.52597 26.3077 7.19796 25.6381C6.61483 24.4517 6.79341 24.1605 6.22486 23.8657C5.91508 24.1896 5.95152 24.277 5.59436 24.3352C5.16065 25.2414 4.50099 25.8892 4.04542 26.9409C2.14296 31.3227 4.28232 35.8682 4.2969 36.5487C4.97478 37.2184 4.77433 37.8989 7.64259 40.9196C9.59972 42.9831 14.0789 45.6616 16.8014 46.8116C17.8729 47.2629 21.4992 48.3656 22.1115 48.8605C21.7725 49.8213 21.9329 49.7813 20.6464 49.381C17.4282 48.3802 12.6575 46.808 9.89857 44.9082L9.28629 44.3405C8.41524 44.2022 5.7292 41.9677 4.9602 41.349C4.00169 40.5775 1.82224 38.6632 1.36303 37.6041L0.444603 36.476L0.189484 37.8043C-0.0474114 40.1444 -0.18226 42.277 0.535717 44.3733C0.823637 45.214 1.22454 46 1.68011 46.6879C2.17577 47.4448 2.91925 48.0854 3.21446 48.6822C4.20214 49.1808 4.76704 50.1088 6.85173 51.2079C9.51589 52.6127 12.6684 53.7773 15.6424 54.527C17.4392 54.9782 18.9188 55.1129 20.7666 55.404L20.7448 56.2848C17.5959 56.4631 11.3928 54.6179 8.34964 53.3515L5.05496 51.5282C3.6263 51.3571 0.973063 48.6458 0.182195 48.1181L0.298821 51.8593C0.743456 52.3215 0.969419 53.9338 1.32294 54.6398C2.62405 57.2273 4.665 58.8577 7.55877 59.9969C11.1705 61.4162 17.0127 61.9002 21.2842 61.6637L21.3097 62.6208C17.3845 62.7045 14.7969 62.5553 11.1596 62.1222C9.53412 61.9293 4.26774 60.9394 3.09419 59.3418C2.73338 59.2617 3.03588 59.3964 2.56573 59.1089C2.33248 58.9669 2.18305 58.8286 1.96438 58.6867C2.21221 59.5492 3.39669 62.9047 3.41856 63.3305C4.3953 64.2039 5.21168 68.0798 11.4439 68.5456C15.9194 68.8768 20.9343 67.3847 23.4818 67.3883L23.9702 68.2217C19.9357 69.5646 13.9695 70.3361 9.1806 69.9649L8.01798 69.7539C8.3059 70.176 8.81979 70.8857 9.11135 71.2096C9.60701 71.7591 10.0808 72.1522 10.2958 72.6871C11.75 73.3495 12.8251 75.8388 18.7949 74.6815C20.2637 74.394 21.7069 73.8772 22.9825 73.3313C23.9957 72.8982 25.92 71.912 26.8348 71.6681L27.4945 72.2759C25.8471 73.5533 21.2914 75.8242 18.7038 76.1627C18.1498 76.4138 15.8355 76.8214 15.0483 76.8323C15.544 77.5383 16.262 78.1861 16.9726 78.6556C19.5056 79.9985 21.9001 80.5262 24.9943 79.3107C26.2407 78.8194 27.305 78.1789 28.1979 77.4983C29.2001 76.7304 30.0602 75.6313 30.7746 75.1619L31.3832 75.7551C30.6361 77.6839 26.7947 80.8902 24.3346 81.3669L22.3885 81.9383L23.9957 83.0628C25.92 83.4595 27.3487 85.119 30.534 83.1174C32.79 81.7017 34.0875 79.0159 34.6196 78.6556L35.2683 79.2343C34.5758 81.3305 31.919 85.0426 30.4648 85.6977L29.8015 86.2545C31.6566 87.8631 35.5052 90.0139 37.5644 90.0285C39.4814 90.043 43.7492 87.7102 45.3309 86.3237L44.7186 85.6686C43.4576 85.1591 40.2249 81.1449 39.9297 79.0341L40.5456 78.6483C41.3839 79.3544 42.1638 81.4688 44.4016 82.9646C47.0767 84.7478 47.9841 84.1692 50.8561 83.132C51.6032 82.7608 52.1608 82.2877 52.795 82.0111C52.4597 81.8145 52.7439 81.9492 52.2847 81.8255C51.8073 81.6944 51.2752 81.6653 50.8269 81.356C49.6206 81.1194 47.5286 79.8166 46.6721 79.1433C45.6626 78.3499 44.2886 77.0034 43.8075 75.7951L44.4599 75.1946C45.7901 76.1772 46.9673 78.1789 50.1344 79.318C54.1872 80.7773 55.6268 79.6492 58.178 78.6884C58.6226 78.4081 60.2007 77.1271 60.0075 76.8942C56.352 76.603 49.5367 74.1392 47.6853 72.2613C48.0534 72.0284 47.9914 72.0575 48.2356 71.6281C51.6032 72.658 58.5643 77.5675 63.9801 73.3386C64.6252 72.8364 64.9751 72.2468 65.5728 71.7919C65.7914 71.4571 65.8206 71.4498 66.1012 71.1441C66.2397 70.9949 66.3308 70.8857 66.4402 70.7765C66.4693 70.7474 66.5058 70.711 66.5349 70.6782L66.7463 70.4854C66.7755 70.4599 66.8192 70.4162 66.8593 70.3871C66.9212 70.0632 66.7099 70.2088 67.1436 70.0268C66.8666 69.6811 67.4205 69.9031 66.6588 69.6993L65.7586 70.005C65.5144 70.0304 65.0698 70.0268 64.7928 70.0414C62.3109 70.1687 61.0025 70.0304 58.506 69.7611C56.5416 69.5464 52.7986 68.8368 51.2205 68.2144L51.7198 67.3883C58.9834 67.7122 67.5845 71.9302 71.7831 62.821C72.1658 61.9876 72.7015 60.1825 73.0915 59.7348L73.1862 59.0397C72.8947 58.5375 73.2701 58.7631 72.7744 58.9596C72.727 58.9778 72.348 59.2617 72.2605 59.3236C67.5408 62.6899 59.4098 62.6681 53.7863 62.5553L53.8701 61.802C55.4664 61.125 70.041 63.3414 74.0391 54.1885C74.7825 52.4889 74.655 51.3244 75.034 49.5156L75.0705 47.9871C74.9465 47.9871 73.0769 49.6867 72.7307 49.9451C71.5389 50.8403 70.2232 51.6628 68.9002 52.347C68.2989 52.66 67.7814 52.9147 67.1436 53.1841C63.8635 54.5706 60.31 55.6151 56.7092 56.0737L54.8869 56.252C54.4897 56.1938 54.6974 56.2447 54.4496 56.0991L54.5371 55.4113C55.3498 55.1893 56.527 55.1529 57.3616 55.0073C59.9018 54.5634 62.5988 53.6462 64.9787 52.7401C68.8601 51.2661 70.0045 50.3672 72.5739 47.8488C72.6031 47.8197 72.6578 47.776 72.6796 47.7542C73.0186 47.4812 73.7766 46.2366 73.999 45.8363C74.3416 45.2212 74.5857 44.5953 74.7935 43.8674C75.311 42.0477 75.1762 40.3082 75.0778 38.3757L74.7315 36.4468C69.0825 43.1541 63.2694 47.2047 54.1908 49.4428C53.1412 49.7012 53.2833 49.4319 53.1995 49.2718C52.8387 48.5949 53.2432 48.715 53.6624 48.5294C57.2778 46.939 58.4914 47.4521 64.0129 43.6527C65.0589 42.9357 66.3272 42.0769 67.1472 41.2471C68.7836 39.5876 69.7494 38.8379 70.7079 36.6761C70.9995 36.021 71.1963 35.4715 71.3931 34.7728C71.7794 33.3753 72.0637 31.7339 71.8523 30.1909C71.9361 29.0008 71.3676 27.3231 70.9157 26.4169C70.646 25.8783 70.318 25.3724 69.9717 24.9393C69.5635 24.4335 69.0606 24.0331 68.7909 23.6328C67.5299 26.668 66.3235 28.5059 64.5997 30.7622C60.4266 36.2176 55.7142 40.592 49.934 44.2677C49.2889 44.679 46.9345 45.8508 46.7231 46.6406V46.6588Z" fill="#233259"/>
<path fill-rule="evenodd" clip-rule="evenodd" d="M44.2591 30.654C45.9538 29.806 47.3242 32.51 45.491 33.2961C43.5703 34.1223 42.6227 31.4728 44.2591 30.654ZM29.5351 30.6467C31.31 29.7696 32.5783 32.5282 30.7961 33.3034C28.9447 34.1113 27.8404 31.4837 29.5351 30.6467ZM24.1084 31.0398C25.5298 30.301 26.2769 32.3208 25.0778 32.9504C23.9444 33.5436 22.6834 31.7785 24.1084 31.0398ZM50.1487 30.9961C51.592 30.3374 52.1933 32.4664 51.0562 32.9795C49.7442 33.5691 48.8512 31.5893 50.1487 30.9961ZM39.492 30.1736L39.2588 31.4437L40.3048 32.1352C39.9731 32.4518 39.6415 32.6119 39.2114 32.7939L39.3645 34.1878L38.1363 33.9003C37.8957 34.2132 37.7062 34.5153 37.3928 34.8574L36.6967 33.9148L35.3773 33.9876L35.6252 32.7757C35.3664 32.5719 34.9108 32.2662 34.6083 32.0442L35.6543 31.3928L35.5012 30.0462L36.704 30.2901C37.0137 30.0207 36.9372 30.0171 37.1377 29.7805L37.6187 29.2965C37.801 29.7514 37.9249 29.9188 38.2128 30.3301L39.4993 30.1736H39.492ZM28.5511 46.3322C29.2764 45.9209 29.5424 45.3459 30.3041 44.7199C33.7628 41.874 39.0802 41.299 43.0673 43.5408C44.4268 44.3051 45.378 45.0548 46.2855 46.1793C46.5625 46.525 46.3401 46.3394 46.7228 46.6597C46.9342 45.87 49.2886 44.6945 49.9337 44.2869C55.7176 40.6112 60.4263 36.2367 64.5994 30.7814C66.3269 28.5286 67.5332 26.6871 68.7906 23.6519C63.6882 23.4663 58.2688 23.6337 53.13 23.6337L8.15617 23.641C7.40175 23.6337 6.65097 23.4991 6.21362 23.863C6.78217 24.1578 6.60359 24.449 7.18672 25.6354C7.51473 26.305 7.77714 26.7636 8.17439 27.4114C12.5223 34.4498 18.2443 39.5084 24.9758 44.1522C25.8286 44.7418 27.5999 45.9609 28.5438 46.3322H28.5511Z" fill="#CEB09D"/>
<path fill-rule="evenodd" clip-rule="evenodd" d="M197.943 22.2478C234.782 22.3278 264.598 38.8067 264.598 59.1213C264.598 79.4869 234.633 95.9949 197.666 95.9949C197.575 95.9949 197.48 95.9912 197.389 95.9912C228.637 92.8723 252.363 77.5363 252.363 59.0886C252.363 40.7501 228.914 25.4904 197.939 22.2441L197.943 22.2478Z" fill="#CEB09F"/>
<path fill-rule="evenodd" clip-rule="evenodd" d="M200.052 0L193.102 21.5593L213.166 41.2516L184.643 23.5718L200.052 0Z" fill="#223056"/>
<path d="M93.5009 70.9994H100.637V55.2994H106.836V49.7422H87.3088V55.2994H93.5046V70.9994H93.5009ZM123.459 70.9994H130.836L121.586 49.7458H114.574L105.324 70.9994H112.577L113.998 67.2946H122.041L123.463 70.9994H123.459ZM115.962 62.1341L118.018 56.7915L120.073 62.1341H115.962ZM152.328 70.9994L144.528 60.0087L151.872 49.7458H144.193L140.687 55.0883L137.09 49.7458H129.079L136.456 60.2816L128.806 70.9994H136.94L140.508 65.3221L144.164 70.9994H152.328Z" fill="#223056"/>
<path d="M158.528 59.5252H169.079V62.8661H158.528V59.5252ZM158.859 71.0036H154.931V49.75H170.376V53.0581H158.859V71.0036ZM174.185 71.0036V49.75H182.892C184.765 49.75 186.372 50.0521 187.713 50.6598C189.055 51.2676 190.086 52.1374 190.811 53.2729C191.537 54.4047 191.897 55.7512 191.897 57.3125C191.897 58.8701 191.537 60.213 190.811 61.3339C190.086 62.4585 189.055 63.3174 187.713 63.9142C186.372 64.5111 184.765 64.8095 182.892 64.8095H176.361L178.114 63.0189V71.0036H174.185ZM188.03 71.0036L182.68 63.2919H186.882L192.262 71.0036H188.03ZM178.114 63.4411L176.361 61.5596H182.706C184.441 61.5596 185.745 61.1847 186.624 60.435C187.498 59.6853 187.936 58.6445 187.936 57.3089C187.936 55.9514 187.498 54.9106 186.624 54.1827C185.745 53.4548 184.441 53.0873 182.706 53.0873H176.361L178.114 51.1439V63.4411ZM199.912 58.5826H210.43V61.8325H199.912V58.5826ZM200.214 67.6918H212.157V71.0036H196.285V49.75H211.735V53.0581H200.218V67.6955L200.214 67.6918ZM220.168 58.5826H230.69V61.8325H220.168V58.5826ZM220.471 67.6918H232.41V71.0036H216.538V49.75H231.987V53.0581H220.471V67.6955V67.6918Z" fill="#CEB09F"/>
<path d="M184.236 80.8399C183.496 80.8399 182.92 80.6325 182.501 80.2139C182.082 79.7954 181.874 79.1949 181.874 78.4052V75.3518H182.873V78.3652C182.873 78.922 182.993 79.3259 183.23 79.5807C183.47 79.8318 183.806 79.9592 184.243 79.9592C184.677 79.9592 185.016 79.8318 185.253 79.5807C185.489 79.3296 185.606 78.922 185.606 78.3652V75.3518H186.59V78.4052C186.59 79.1949 186.382 79.7954 185.963 80.2139C185.544 80.6325 184.968 80.8399 184.236 80.8399ZM187.581 80.7635V80.0902L191.058 75.8249L191.175 76.2034H187.636V75.3555H192.075V76.0287L188.598 80.294L188.474 79.9155H192.177V80.7671H187.581V80.7635ZM193.092 80.7635V75.3518H195.614C196.259 75.3518 196.755 75.4792 197.09 75.7339C197.429 75.9887 197.597 76.3308 197.597 76.7566C197.597 77.0441 197.531 77.2916 197.396 77.4954C197.261 77.6992 197.083 77.8557 196.86 77.9648C196.638 78.074 196.398 78.1323 196.135 78.1323L196.274 77.852C196.576 77.852 196.849 77.9066 197.09 78.0194C197.331 78.1286 197.524 78.2924 197.662 78.5035C197.804 78.7145 197.874 78.9766 197.874 79.2932C197.874 79.759 197.695 80.1193 197.345 80.3741C196.992 80.6325 196.463 80.7598 195.767 80.7598H193.088L193.092 80.7635ZM194.091 79.9737H195.705C196.08 79.9737 196.365 79.9119 196.565 79.7881C196.766 79.6644 196.864 79.4679 196.864 79.1949C196.864 78.9293 196.766 78.7291 196.565 78.6017C196.365 78.4743 196.077 78.4125 195.705 78.4125H194.01V77.63H195.505C195.851 77.63 196.121 77.5682 196.306 77.4444C196.492 77.3207 196.587 77.1351 196.587 76.8876C196.587 76.6365 196.492 76.4473 196.306 76.3235C196.121 76.1998 195.851 76.1379 195.505 76.1379H194.091V79.9701V79.9737ZM199.871 77.6009H202.55V78.427H199.871V77.6009ZM199.947 79.9192H202.987V80.7598H198.949V75.3482H202.881V76.1889H199.951V79.9155L199.947 79.9192ZM204.995 79.4861L204.94 78.296L207.765 75.3518H208.887L206.54 77.8557L205.986 78.4671L204.995 79.4861ZM204.102 80.7598V75.3482H205.101V80.7598H204.102ZM207.856 80.7598L205.793 78.296L206.457 77.5609L209.026 80.7598H207.856ZM209.711 80.7598V75.3482H210.71V80.7598H209.711ZM213.837 80.8363C213.414 80.8363 213.009 80.7744 212.627 80.6543C212.244 80.5342 211.938 80.3777 211.712 80.1885L212.058 79.4097C212.273 79.5807 212.539 79.7226 212.86 79.8355C213.177 79.9483 213.505 80.0065 213.837 80.0065C214.117 80.0065 214.347 79.9774 214.522 79.9119C214.697 79.85 214.824 79.7663 214.905 79.6608C214.988 79.5552 215.029 79.4351 215.029 79.3005C215.029 79.1367 214.97 79.002 214.85 78.9038C214.733 78.8019 214.58 78.7218 214.394 78.6636C214.205 78.6054 214.001 78.5508 213.771 78.4962C213.542 78.4452 213.316 78.3834 213.086 78.3142C212.856 78.2451 212.649 78.1541 212.463 78.0449C212.277 77.9321 212.124 77.7865 212.007 77.6009C211.891 77.4153 211.829 77.1788 211.829 76.8912C211.829 76.5965 211.905 76.3272 212.062 76.0833C212.219 75.8395 212.455 75.643 212.776 75.4974C213.097 75.3482 213.505 75.2754 213.997 75.2754C214.318 75.2754 214.639 75.3154 214.959 75.3991C215.276 75.4828 215.553 75.5993 215.79 75.7558L215.477 76.5382C215.233 76.3927 214.985 76.2871 214.73 76.218C214.475 76.1488 214.227 76.1124 213.99 76.1124C213.713 76.1124 213.491 76.1452 213.316 76.2143C213.144 76.2798 213.017 76.3672 212.94 76.4764C212.86 76.5855 212.82 76.7093 212.82 76.8476C212.82 77.0113 212.878 77.146 212.995 77.2443C213.111 77.3462 213.261 77.4262 213.45 77.4808C213.636 77.5354 213.848 77.5936 214.077 77.6482C214.311 77.7028 214.54 77.7647 214.766 77.8302C214.996 77.8993 215.203 77.983 215.389 78.0922C215.575 78.2014 215.728 78.347 215.845 78.5326C215.962 78.7182 216.016 78.9511 216.016 79.235C216.016 79.5225 215.94 79.7881 215.779 80.0356C215.623 80.2794 215.386 80.476 215.061 80.6215C214.737 80.7671 214.329 80.8399 213.837 80.8399V80.8363ZM218.024 80.7598V76.1998H216.239V75.3518H220.809V76.1998H219.023V80.7598H218.024ZM220.532 80.7598L222.955 75.3482H223.939L226.37 80.7598H225.324L223.24 75.8832H223.641L221.563 80.7598H220.532ZM221.647 79.5079L221.917 78.7182H224.825L225.095 79.5079H221.647ZM227.059 80.7598V75.3482H227.883L231.261 79.5152H230.853V75.3482H231.844V80.7598H231.021L227.642 76.5928H228.051V80.7598H227.059Z" fill="#223056"/>
</svg>
